<?xml version="1.0" standalone="no"?>
<!DOCTYPE svg PUBLIC "-//W3C//DTD SVG 20010904//EN"
 "http://www.w3.org/TR/2001/REC-SVG-20010904/DTD/svg10.dtd">
<svg version="1.0" xmlns="http://www.w3.org/2000/svg"
 width="820.000000pt" height="820.000000pt" viewBox="0 0 820.000000 820.000000"
 preserveAspectRatio="xMidYMid meet">
<metadata>
Created by potrace 1.14, written by Peter Selinger 2001-2017
</metadata>
<g transform="translate(0.000000,820.000000) scale(0.100000,-0.100000)"
fill="#000000" stroke="none">
<path d="M7490 7190 c-173 -32 -650 -120 -1060 -194 -410 -75 -754 -140 -765
-145 -16 -7 -38 -70 -114 -334 -66 -230 -92 -333 -87 -352 10 -39 53 -75 89
-75 17 0 205 34 418 75 213 41 400 75 414 75 15 0 35 -5 46 -10 21 -12 49 -60
49 -86 0 -15 -799 -1620 -1050 -2109 -42 -82 -244 -483 -449 -890 l-372 -740
-66 -3 c-36 -2 -113 -12 -171 -23 -58 -10 -122 -19 -142 -19 -20 0 -41 -5 -46
-10 -9 -9 28 181 176 912 17 81 30 159 30 172 0 57 -46 106 -100 106 -11 0
-130 -34 -265 -75 -134 -41 -255 -75 -269 -75 -40 0 -86 46 -86 86 0 19 45
259 101 532 55 273 106 529 112 569 13 87 3 116 -48 140 -40 19 30 32 -581
-108 -247 -57 -274 -61 -303 -49 -52 21 -64 57 -57 174 8 134 40 677 71 1231
14 248 30 520 35 605 15 230 20 206 -52 219 -88 16 -365 65 -543 96 -82 15
-222 40 -310 55 -88 16 -227 41 -310 55 -82 14 -184 32 -225 40 -41 7 -131 23
-200 35 -69 12 -174 30 -235 41 -60 11 -150 27 -200 35 -49 9 -125 22 -167 31
l-78 14 -37 -29 c-21 -16 -74 -55 -118 -87 -44 -32 -96 -71 -116 -86 -20 -15
-61 -45 -92 -67 l-56 -39 103 -184 c128 -228 484 -856 1259 -2219 1759 -3092
2351 -4127 2370 -4148 80 -86 232 -81 300 10 39 52 3699 6606 3715 6652 33 96
-37 218 -140 244 -26 7 -50 12 -55 11 -4 0 -150 -27 -323 -59z m-2917 -4855
c-3 -9 -8 -14 -10 -11 -3 3 -2 9 2 15 9 16 15 13 8 -4z"/>
</g>
</svg>
